<?xml version="1.0" standalone="no"?>
<!DOCTYPE svg PUBLIC "-//W3C//DTD SVG 20010904//EN"
 "http://www.w3.org/TR/2001/REC-SVG-20010904/DTD/svg10.dtd">
<svg version="1.0" xmlns="http://www.w3.org/2000/svg"
 width="300.000000pt" height="70.000000pt" viewBox="0 0 300.000000 70.000000"
 preserveAspectRatio="xMidYMid meet">

<g transform="translate(0.000000,70.000000) scale(0.100000,-0.100000)"
fill="#000000" stroke="none">
<path d="M1676 632 c-28 -13 -118 -41 -200 -63 -342 -88 -522 -159 -715 -284
-94 -60 -146 -85 -175 -85 -41 0 -38 26 9 84 46 56 55 76 33 76 -26 0 -208
-49 -225 -60 -17 -11 -17 -11 0 -6 105 33 130 38 137 26 6 -9 9 -9 13 1 3 11
7 11 17 2 14 -13 17 -9 -51 -93 -86 -106 -110 -160 -70 -160 28 0 137 59 233
126 212 148 294 194 453 257 85 34 135 48 405 112 121 29 158 43 180 70 20 24
9 24 -44 -3z"/>
<path d="M1620 574 c-36 -12 -128 -36 -205 -52 -126 -27 -322 -89 -312 -98 2
-2 39 9 83 25 46 17 140 38 224 51 149 23 226 46 270 80 31 24 23 23 -60 -6z"/>
<path d="M730 492 c-29 -13 -190 -125 -186 -129 9 -9 215 115 216 130 0 8 -9
8 -30 -1z"/>
<path d="M1375 480 c-55 -10 -139 -31 -187 -46 -94 -30 -116 -46 -26 -19 29 8
95 20 147 25 62 7 112 18 145 34 60 29 54 29 -79 6z"/>
<path d="M1058 393 c6 -2 18 -2 25 0 6 3 1 5 -13 5 -14 0 -19 -2 -12 -5z"/>
<path d="M1010 352 c0 -16 58 -173 64 -172 3 0 14 0 24 0 12 0 41 32 81 90
l62 90 -28 0 c-24 0 -33 -9 -66 -72 -43 -79 -48 -78 -68 14 -12 54 -15 58 -41
58 -15 0 -28 -4 -28 -8z"/>
<path d="M1276 274 c-31 -48 -56 -90 -56 -94 0 -17 53 5 62 26 10 20 18 24 59
24 43 0 49 -3 55 -24 3 -13 14 -26 24 -29 37 -10 40 7 12 96 l-27 87 -36 0
c-35 0 -39 -4 -93 -86z m94 49 c0 -10 3 -28 6 -40 6 -21 3 -23 -30 -23 l-37 0
23 40 c25 43 38 51 38 23z"/>
<path d="M1517 308 c-4 -29 -9 -70 -13 -90 -6 -34 -4 -38 14 -38 18 0 21 8 27
58 3 31 7 63 8 70 1 7 25 -19 52 -58 42 -59 54 -70 75 -68 22 3 26 9 31 56 4
29 10 68 13 87 6 33 5 35 -19 35 -23 0 -25 -3 -27 -52 0 -29 -1 -59 -1 -65 1
-24 -12 -12 -53 50 -33 50 -47 63 -71 65 -29 3 -30 2 -36 -50z"/>
<path d="M1865 341 c3 -11 18 -53 33 -93 25 -66 29 -73 52 -70 24 4 30 12 123
154 l19 28 -25 0 c-22 0 -32 -12 -64 -70 -21 -38 -41 -70 -44 -70 -3 0 -13 32
-23 70 -18 67 -20 70 -48 70 -24 0 -28 -3 -23 -19z"/>
<path d="M2126 303 c-4 -32 -9 -74 -12 -94 -6 -35 -5 -36 19 -32 21 4 26 12
31 56 4 29 10 69 13 90 5 34 4 37 -19 37 -23 0 -26 -5 -32 -57z"/>
<path d="M2242 283 c-16 -103 -16 -103 12 -103 21 0 25 5 28 38 l3 37 53 3 53
3 -6 -35 c-8 -42 -1 -56 23 -49 15 3 21 21 30 81 16 102 16 102 -13 102 -22 0
-25 -4 -25 -35 l0 -35 -55 0 -56 0 7 35 c6 32 4 35 -18 35 -23 0 -25 -5 -36
-77z"/>
<path d="M2527 271 c-31 -48 -57 -90 -57 -93 0 -16 45 3 63 26 19 24 28 27 67
24 38 -2 46 -7 48 -25 3 -18 10 -23 33 -23 34 0 34 -9 -4 113 -21 66 -21 67
-57 67 -34 0 -39 -4 -93 -89z m99 29 c12 -43 8 -49 -36 -42 l-27 4 21 39 c11
21 23 39 26 39 3 0 11 -18 16 -40z"/>
<path d="M2767 303 c-4 -32 -10 -74 -13 -94 -6 -35 -5 -36 20 -32 21 4 26 11
26 34 0 52 70 52 88 0 7 -19 19 -30 36 -33 14 -3 26 -1 26 4 0 18 -30 67 -47
77 -16 9 -15 11 9 20 31 12 45 46 28 66 -9 11 -34 15 -90 15 l-77 0 -6 -57z
m129 22 c10 -24 -15 -45 -53 -45 -28 0 -34 3 -29 16 3 9 6 22 6 30 0 20 69 19
76 -1z"/>
<path d="M163 330 c-40 -11 -85 -26 -100 -35 -15 -9 -21 -14 -13 -11 121 39
159 44 167 20 2 -6 -28 -55 -67 -109 -38 -54 -70 -107 -70 -117 0 -28 50 -23
97 9 120 84 241 173 253 189 14 16 13 16 -19 0 -18 -10 -82 -51 -142 -92 -100
-68 -129 -83 -129 -69 0 15 39 78 91 148 33 43 59 80 59 83 0 9 -58 2 -127
-16z"/>
<path d="M1060 106 c0 -19 5 -38 10 -41 6 -4 10 7 10 26 l0 33 35 -34 35 -34
-1 45 c-1 37 -2 39 -8 16 l-6 -29 -24 26 c-34 36 -51 33 -51 -8z"/>
<path d="M1196 104 c-18 -39 -17 -54 4 -29 17 20 47 19 59 -2 5 -10 13 -14 17
-10 12 12 -27 77 -46 77 -9 0 -24 -16 -34 -36z m44 11 c0 -8 -7 -15 -15 -15
-9 0 -12 6 -9 15 4 8 10 15 15 15 5 0 9 -7 9 -15z"/>
<path d="M1308 133 c19 -4 22 -10 20 -33 -2 -16 1 -28 7 -27 5 1 8 14 6 29 -2
21 3 27 21 31 13 2 1 4 -27 4 -27 0 -40 -2 -27 -4z"/>
<path d="M1400 106 c0 -19 5 -38 10 -41 6 -4 10 10 10 34 0 23 -4 41 -10 41
-5 0 -10 -15 -10 -34z"/>
<path d="M1462 128 c-35 -35 14 -82 63 -60 31 14 41 37 25 57 -15 18 -71 20
-88 3z m72 -14 c7 -19 -10 -44 -29 -44 -19 0 -38 28 -31 45 7 20 52 19 60 -1z"/>
<path d="M1580 106 c0 -19 5 -38 10 -41 6 -4 10 7 10 26 l0 33 33 -32 c18 -18
36 -29 40 -26 11 11 8 74 -3 74 -5 0 -10 -12 -10 -27 l0 -27 -28 27 c-38 36
-52 34 -52 -7z"/>
<path d="M1720 104 c-23 -36 -23 -56 0 -29 16 20 39 19 62 -2 22 -20 24 -3 3
37 -20 39 -39 38 -65 -6z m39 -3 c-15 -5 -22 6 -14 19 6 9 10 9 16 -1 5 -8 4
-15 -2 -18z"/>
<path d="M1830 100 c0 -40 0 -40 38 -39 30 2 32 3 10 6 -24 4 -28 9 -28 39 0
19 -4 34 -10 34 -5 0 -10 -18 -10 -40z"/>
<path d="M1960 106 c0 -19 5 -38 10 -41 6 -3 10 0 10 7 0 8 14 19 30 25 45 17
39 43 -10 43 -39 0 -40 -1 -40 -34z m58 12 c-7 -19 -38 -22 -38 -4 0 10 9 16
21 16 12 0 19 -5 17 -12z"/>
<path d="M2071 104 c-22 -38 -19 -63 3 -31 17 22 45 22 62 0 21 -29 26 -8 8
31 -22 46 -46 46 -73 0z m49 5 c0 -5 -7 -9 -15 -9 -15 0 -20 12 -9 23 8 8 24
-1 24 -14z"/>
<path d="M2180 106 c0 -19 5 -38 10 -41 6 -3 10 1 10 9 0 25 18 27 39 4 12
-12 24 -19 27 -15 11 10 -27 47 -48 47 -10 0 -18 5 -18 10 0 6 9 10 20 10 11
0 20 -4 20 -10 0 -5 5 -10 10 -10 6 0 10 7 10 15 0 11 -11 15 -40 15 -39 0
-40 -1 -40 -34z"/>
<path d="M2290 106 c0 -19 5 -38 10 -41 6 -3 10 3 10 14 0 26 5 26 37 1 15
-11 29 -18 32 -14 3 3 -5 14 -18 25 -23 19 -23 20 -5 34 10 8 14 15 8 15 -6 0
-17 -7 -24 -15 -7 -8 -16 -15 -21 -15 -5 0 -9 7 -9 15 0 8 -4 15 -10 15 -5 0
-10 -15 -10 -34z"/>
<path d="M2455 120 c4 -11 2 -20 -4 -20 -6 0 -11 -6 -11 -14 0 -15 37 -32 47
-22 4 3 -1 6 -10 6 -9 0 -17 7 -17 16 0 10 7 14 23 12 13 -2 21 -9 19 -18 -2
-8 0 -12 4 -8 4 4 13 3 21 -4 7 -6 17 -8 20 -4 4 4 1 11 -6 15 -7 5 -11 13 -7
19 4 6 -2 8 -15 5 -18 -5 -20 -3 -14 16 4 13 2 21 -5 21 -6 0 -9 -4 -5 -9 3
-5 1 -12 -5 -16 -6 -3 -13 1 -16 9 -9 23 -26 19 -19 -4z"/>
<path d="M2633 131 l29 -6 -26 -24 c-14 -14 -26 -27 -26 -30 0 -3 16 -7 35 -8
19 -2 35 1 35 6 0 5 -9 7 -20 4 -11 -3 -20 -1 -20 4 0 6 9 18 20 28 29 26 25
35 -17 34 -35 -1 -36 -2 -10 -8z"/>
<path d="M2723 133 c-23 -9 -15 -53 12 -65 46 -21 103 23 75 57 -12 14 -61 19
-87 8z m71 -20 c9 -23 -17 -47 -43 -38 -20 6 -28 34 -14 48 13 13 51 7 57 -10z"/>
<path d="M2852 128 c-35 -35 11 -79 65 -61 53 18 37 73 -21 73 -18 0 -37 -5
-44 -12z m73 -22 c0 -30 -31 -44 -51 -24 -24 24 -11 50 23 46 20 -2 28 -9 28
-22z"/>
</g>
</svg>
